<?xml version="1.0"?>
<svg xmlns="http://www.w3.org/2000/svg" xmlns:xlink="http://www.w3.org/1999/xlink" xmlns:svgjs="http://svgjs.com/svgjs" version="1.1" width="512" height="512" x="0" y="0" viewBox="0 0 512 512" style="enable-background:new 0 0 512 512" xml:space="preserve" class=""><g><g xmlns="http://www.w3.org/2000/svg"><path d="m504.5 106h-437c-4.142 0-7.5 3.357-7.5 7.5v22.5h-22.5c-4.142 0-7.5 3.357-7.5 7.5v22.5h-22.5c-4.142 0-7.5 3.357-7.5 7.5v225c0 4.143 3.358 7.5 7.5 7.5h437c4.142 0 7.5-3.357 7.5-7.5v-22.5h22.5c4.142 0 7.5-3.357 7.5-7.5v-22.5h22.5c4.142 0 7.5-3.357 7.5-7.5v-225c0-4.143-3.358-7.5-7.5-7.5zm-67.5 285h-422v-210h15v187.5c0 4.143 3.358 7.5 7.5 7.5h399.5zm30-30h-422v-210h15v187.5c0 4.143 3.358 7.5 7.5 7.5h399.5zm30-30h-422v-210h422z" fill="#00a83e" data-original="#000000" style="" class=""/><path d="m127.5 316h317c20.678 0 37.5-16.822 37.5-37.5v-105c0-20.678-16.822-37.5-37.5-37.5h-317c-20.678 0-37.5 16.822-37.5 37.5v37.5c0 4.143 3.358 7.5 7.5 7.5s7.5-3.357 7.5-7.5v-37.5c0-12.406 10.093-22.5 22.5-22.5h113.223c-18.63 13.864-30.723 36.045-30.723 61v28c0 24.955 12.093 47.136 30.723 61h-113.223c-12.407 0-22.5-10.094-22.5-22.5v-37.5c0-4.143-3.358-7.5-7.5-7.5s-7.5 3.357-7.5 7.5v37.5c0 20.678 16.822 37.5 37.5 37.5zm317-165c12.407 0 22.5 10.094 22.5 22.5v105c0 12.406-10.093 22.5-22.5 22.5h-113.223c18.63-13.864 30.723-36.045 30.723-61v-28c0-24.955-12.093-47.136-30.723-61zm-219.5 89v-28c0-33.636 27.364-61 61-61s61 27.364 61 61v28c0 33.636-27.364 61-61 61s-61-27.364-61-61z" fill="#00a83e" data-original="#000000" style="" class=""/><path d="m332 212c0-25.364-20.636-46-46-46s-46 20.636-46 46v28c0 25.364 20.636 46 46 46s46-20.636 46-46zm-15 28c0 17.094-13.907 31-31 31s-31-13.906-31-31v-28c0-17.094 13.907-31 31-31s31 13.906 31 31z" fill="#00a83e" data-original="#000000" style="" class=""/><path d="m157.5 263.5c20.678 0 37.5-16.822 37.5-37.5s-16.822-37.5-37.5-37.5-37.5 16.822-37.5 37.5 16.822 37.5 37.5 37.5zm0-60c12.407 0 22.5 10.094 22.5 22.5s-10.093 22.5-22.5 22.5-22.5-10.094-22.5-22.5 10.093-22.5 22.5-22.5z" fill="#00a83e" data-original="#000000" style="" class=""/><path d="m414.5 263.5c20.678 0 37.5-16.822 37.5-37.5s-16.822-37.5-37.5-37.5-37.5 16.822-37.5 37.5 16.822 37.5 37.5 37.5zm0-60c12.407 0 22.5 10.094 22.5 22.5s-10.093 22.5-22.5 22.5-22.5-10.094-22.5-22.5 10.093-22.5 22.5-22.5z" fill="#00a83e" data-original="#000000" style="" class=""/></g></g></svg>
